# xmcd
#
# Track frame offsets: 
#        150
#        28248
#        51696
#        72894
#        97542
#        125115
#        148188
#        171186
#        196884
#        216957
#        237855
#
# Disc length: 3421 seconds
#
# Revision: 0
# Processed by: cddbd v1.5.2PL0 Copyright (c) Steve Scherf et al.
# Submitted via: ExactAudioCopy v1.0b4
#
DISCID=a70d5b0b
DTITLE=Bryce Janey - Delta Road
DYEAR=2015
DGENRE=Blues Rock
TTITLE0=Keep Marchin' On
TTITLE1=This Old Guitar
TTITLE2=Delta Road
TTITLE3=Shake the Walls (With Foot Stompin' Music)
TTITLE4=Feel Like a Stranger
TTITLE5=Better Off With the Blues
TTITLE6=Lonesome Highway
TTITLE7=World of Trouble
TTITLE8=Same Old Thang
TTITLE9=Time Doesn't Wait
TTITLE10=Hellhound On My Trail
EXTD=
EXTT0=
EXTT1=
EXTT2=
EXTT3=
EXTT4=
EXTT5=
EXTT6=
EXTT7=
EXTT8=
EXTT9=
EXTT10=
PLAYORDER=
